# xmcd CD database file
#
# Track frame offsets:
#	150
#	18374
#	36298
#	50911
#	66753
#	89354
#	106982
#	124655
#	142509
#	164248
#	185995
#	206119
#
# Disc length: 3006 seconds
#
# Revision: 6
# Processed by: cddbd v1.5.2PL0 Copyright (c) Steve Scherf et al.
# Submitted via: CDex 1.90
#
DISCID=b20bbc0c
DTITLE=Ayo - Joyful
DYEAR=2006
DGENRE=Jazz
TTITLE0=Down On My Knees
TTITLE1=Without You
TTITLE2=Letter By Letter
TTITLE3=How Many Times?
TTITLE4=And It's Supposed To Be Love
TTITLE5=Watching You
TTITLE6=Only You
TTITLE7=Help Is Coming
TTITLE8=These Days
TTITLE9=Life Is Real
TTITLE10=What Is Love?
TTITLE11=Neva Been
EXTD=YEAR: 2006
EXTT0=
EXTT1=
EXTT2=
EXTT3=
EXTT4=
EXTT5=
EXTT6=
EXTT7=
EXTT8=
EXTT9=
EXTT10=
EXTT11=
PLAYORDER=
